<svg width="840" height="855" viewBox="0 0 840 855" fill="none" xmlns="http://www.w3.org/2000/svg">
<path d="M450.823 763.244H277.665V629.688H450.823V763.244Z" fill="#ECECEC"/>
<mask id="mask0_604_93716" style="mask-type:alpha" maskUnits="userSpaceOnUse" x="0" y="0" width="832" height="832">
<path d="M0 -0.000164032H831.272V831.271H0V-0.000164032Z" fill="white"/>
</mask>
<g mask="url(#mask0_604_93716)">
<path d="M407.44 762.302C407.2 762.302 407.006 732.532 407.006 695.817C407.006 659.089 407.2 629.327 407.44 629.327C407.679 629.327 407.872 659.089 407.872 695.817C407.872 732.532 407.679 762.302 407.44 762.302Z" fill="#E1E1E1"/>
<path d="M436.142 747.854H422.868V732.847H436.142V747.854Z" fill="#FAFAFA"/>
<path d="M330.489 658.53H350.159V630.032H330.489V658.53Z" fill="#E1E1E1"/>
<path d="M330.489 762.848H350.159V734.348H330.489V762.848Z" fill="#E1E1E1"/>
<path d="M765.012 764.604H546.679V596.205H765.012V764.604Z" fill="#ECECEC"/>
<path d="M710.311 763.413C710.07 763.413 709.877 725.878 709.877 679.584C709.877 633.278 710.07 595.747 710.311 595.747C710.55 595.747 710.743 633.278 710.743 679.584C710.743 725.878 710.55 763.413 710.311 763.413Z" fill="#E1E1E1"/>
<path d="M746.501 745.193H729.763V726.271H746.501V745.193Z" fill="#FAFAFA"/>
<path d="M613.286 632.571H638.086V596.638H613.286V632.571Z" fill="#E1E1E1"/>
<path d="M613.286 764.101H638.086V728.169H613.286V764.101Z" fill="#E1E1E1"/>
<path d="M135.433 601.158C144.269 596.599 154.675 596.005 164.486 597.628C169.756 598.497 175.251 600.075 178.837 604.034C182.423 607.992 183.103 614.96 178.985 618.363C176.534 620.386 173.116 620.694 169.935 620.657C162.256 620.568 153.734 619.214 147.599 623.838C144.098 626.473 141.769 630.856 137.582 632.152C133.489 633.421 128.867 631.003 126.698 627.308C124.526 623.613 124.453 618.995 125.466 614.829C125.466 614.829 126.531 605.751 135.433 601.158Z" fill="#ECECEC"/>
<path d="M115.187 562.075C120.591 569.792 131.093 567.237 135.962 562.525C140.832 557.815 142.89 550.989 144.764 544.478C149.043 529.602 153.359 513.997 150.177 498.85C149.225 494.319 147.532 489.802 144.35 486.444C141.166 483.082 136.273 481.084 131.799 482.266C126.504 483.666 123.212 488.851 120.833 493.786C113.842 508.286 110.14 524.363 110.085 540.463C110.06 547.981 110.946 555.868 115.187 562.075Z" fill="#ECECEC"/>
<path d="M100.349 573.149C106.216 566.186 107.33 556.03 104.718 547.306C102.108 538.583 96.2105 531.163 89.4124 525.105C81.4421 518.001 72.0754 512.474 62.0053 508.933C58.0418 507.54 53.8605 506.441 49.6792 506.838C45.4963 507.237 41.2851 509.377 39.3349 513.098C36.4504 518.598 39.2152 525.271 42.2061 530.716C47.4764 540.305 53.5014 549.481 60.2081 558.128C65.6048 565.084 71.7844 571.945 80.009 575.089C88.2303 578.235 96.7741 577.864 101.132 572.161" fill="#ECECEC"/>
<path d="M114.821 678.492C114.922 678.498 115.087 677.248 115.31 674.985C115.559 672.432 115.87 669.228 116.241 665.416C116.688 661.387 117.277 656.596 118.394 651.376C119.509 646.172 121.255 640.531 123.496 634.81C125.817 629.121 128.648 623.952 131.957 619.817C135.242 615.664 139.063 612.658 142.654 610.924C146.233 609.157 149.442 608.439 151.661 608.121C153.897 607.89 155.151 607.716 155.153 607.614C155.153 607.516 153.897 607.499 151.6 607.561C149.322 607.712 145.979 608.289 142.206 610.005C138.423 611.682 134.369 614.735 130.924 618.974C127.45 623.194 124.517 628.479 122.155 634.266C119.874 640.089 118.153 645.788 117.089 651.106C116.026 656.416 115.539 661.261 115.222 665.321C114.917 669.384 114.803 672.676 114.748 674.95C114.696 677.225 114.723 678.487 114.821 678.492Z" fill="#E1E1E1"/>
<path d="M115.481 671.128C115.531 671.125 115.561 670.565 115.576 669.501C115.573 668.277 115.568 666.738 115.563 664.847C115.551 660.809 115.553 654.964 115.77 647.748C116.128 633.317 117.37 617.784 119.771 595.885C122.043 575.293 125.094 551.329 128.313 535.749C129.003 532.205 129.699 529.016 130.353 526.226C130.978 523.426 131.51 521.014 132.025 519.061C132.466 517.223 132.826 515.726 133.112 514.538C133.345 513.499 133.445 512.946 133.397 512.934C133.349 512.919 133.156 513.444 132.831 514.46C132.476 515.631 132.03 517.104 131.48 518.918C130.881 520.851 130.268 523.249 129.566 526.037C128.835 528.816 128.068 531.997 127.312 535.535C124.126 549.655 120.755 569.386 118.331 591.336C115.927 613.28 114.843 633.261 114.746 647.73C114.66 654.964 114.814 660.821 114.999 664.861C115.115 666.751 115.209 668.29 115.283 669.511C115.365 670.573 115.431 671.13 115.481 671.128Z" fill="#E1E1E1"/>
<path d="M115.578 632.591C115.678 632.586 115.661 630.861 115.543 627.73C115.365 624.606 114.934 620.091 114.055 614.559C113.122 609.043 111.819 602.493 109.772 595.374C108.884 592.118 106.8 584.321 101.749 572.67C95.0937 556.882 86.0511 543.974 78.1856 535.981C76.3402 533.858 74.287 532.327 72.6427 530.827C71.7931 530.107 71.04 529.392 70.2752 528.824C69.5055 528.293 68.7889 527.8 68.1256 527.341C65.5353 525.57 64.0856 524.636 64.0324 524.72C63.7996 525.038 69.8313 528.586 77.4458 536.687C85.0303 544.772 93.8202 557.591 100.42 573.245C104.101 581.736 106.668 589.31 108.489 595.739C110.594 602.789 111.99 609.274 113.048 614.737C114.05 620.21 114.632 624.679 114.983 627.777C115.27 630.876 115.478 632.595 115.578 632.591Z" fill="#E1E1E1"/>
<path d="M75.7495 694.716L79.6116 747.62H147.575L151.437 694.716H75.7495Z" fill="#ECECEC"/>
<path d="M69.1851 694.717H159.546V673.865H69.1851V694.717Z" fill="#ECECEC"/>
<path d="M69.1851 745.596V751.376H73.4312H158.053V745.596H69.1851Z" fill="#E1E1E1"/>
<path d="M77.5925 760.908L73.4312 750.736H154.816L149.96 760.908H77.5925Z" fill="#E1E1E1"/>
<path d="M150.175 712.007C150.19 712.019 150.082 712.183 149.859 712.493C149.588 712.85 149.254 713.292 148.843 713.839C147.877 715.075 146.552 716.77 144.883 718.905L144.707 719.131L144.537 718.897C142.048 715.454 138.723 710.857 134.81 705.443H135.37C132.475 709.54 129.253 714.104 125.794 719.003L125.493 719.429L125.157 719.028C121.622 714.822 117.785 710.257 113.8 705.517L114.455 705.507C114.257 705.754 114.044 706.022 113.83 706.291C110.307 710.709 106.899 714.981 103.673 719.023L103.336 719.449L103.023 719.006C99.5752 714.127 96.3532 709.57 93.4421 705.45L93.9991 705.475C89.2775 710.857 85.2724 715.419 82.2 718.92L81.9905 719.159L81.8309 718.89C80.2748 716.277 79.0345 714.192 78.1351 712.682C77.7494 712.009 77.4368 711.465 77.1874 711.03C76.978 710.652 76.8799 710.451 76.8982 710.441C76.9164 710.429 77.0511 710.607 77.2938 710.965C77.5698 711.382 77.9156 711.906 78.3429 712.554C79.2856 714.039 80.589 716.084 82.22 718.649L81.8525 718.621C84.8767 715.075 88.8169 710.456 93.4621 705.011L93.7547 704.669L94.0207 705.038C96.9584 709.139 100.209 713.678 103.687 718.534L103.037 718.516C106.254 714.468 109.654 710.187 113.168 705.764C113.383 705.497 113.595 705.229 113.793 704.98L114.116 704.574L114.448 704.973C118.422 709.723 122.249 714.298 125.774 718.511L125.137 718.536C128.632 713.661 131.887 709.121 134.81 705.044L135.094 704.649L135.37 705.044C139.2 710.518 142.456 715.164 144.891 718.644L144.545 718.632C146.281 716.553 147.659 714.898 148.663 713.696C149.111 713.178 149.475 712.757 149.767 712.418C150.022 712.134 150.16 711.994 150.175 712.007Z" fill="#F5F5F5"/>
<path d="M152.383 694.367C152.383 694.601 135.353 694.791 114.352 694.791C93.3408 694.791 76.3164 694.601 76.3164 694.367C76.3164 694.133 93.3408 693.945 114.352 693.945C135.353 693.945 152.383 694.133 152.383 694.367Z" fill="#F5F5F5"/>
<path d="M629.512 163.793L615.579 163.868L615.207 94.5418L629.139 94.467L629.512 163.793Z" fill="#E1E1E1"/>
<path d="M530.791 132.92L494.712 133.113L494.506 94.8415L530.586 94.647L530.791 132.92Z" fill="#ECECEC"/>
<path d="M566.699 132.728L530.62 132.921L530.414 94.6492L566.495 94.4546L566.699 132.728Z" fill="#F5F5F5"/>
<path d="M494.562 105.411C518.539 105.609 542.576 105.469 566.552 105.08C567.046 105.072 567.042 104.315 566.547 104.313C542.57 104.18 518.533 104.298 494.559 104.752C494.137 104.762 494.138 105.407 494.562 105.411Z" fill="#E1E1E1"/>
<path d="M537.729 163.472L472.178 163.823L472.012 132.634L537.561 132.283L537.729 163.472Z" fill="#ECECEC"/>
<path d="M602.97 163.123L537.417 163.474L537.251 132.284L602.802 131.934L602.97 163.123Z" fill="#F5F5F5"/>
<path d="M472.058 141.308C515.603 141.8 559.305 141.359 602.85 140.661C603.342 140.653 603.341 139.898 602.845 139.895C559.297 139.665 515.593 139.69 472.055 140.649C471.631 140.659 471.634 141.303 472.058 141.308Z" fill="#E1E1E1"/>
<path d="M701.509 174.998H447.544V163.824H701.509V174.998Z" fill="#E1E1E1"/>
<path d="M499.433 207.324H489.124V169.195H499.433V207.324Z" fill="#E1E1E1"/>
<path d="M653.335 207.324H643.025V169.195H653.335V207.324Z" fill="#E1E1E1"/>
<path d="M643.246 163.964L629.314 164.039L628.802 68.6901L642.734 68.6152L643.246 163.964Z" fill="#ECECEC"/>
<path d="M664.918 163.633L643.27 163.75L642.854 86.4795L664.504 86.3631L664.918 163.633Z" fill="#F5F5F5"/>
<path d="M664.36 101.251C664.36 101.459 659.514 101.627 653.535 101.627C647.557 101.627 642.712 101.459 642.712 101.251C642.712 101.043 647.557 100.875 653.535 100.875C659.514 100.875 664.36 101.043 664.36 101.251Z" fill="#E1E1E1"/>
<path d="M664.36 98.0037C664.36 98.2115 659.514 98.3794 653.535 98.3794C647.557 98.3794 642.712 98.2115 642.712 98.0037C642.712 97.7958 647.557 97.6279 653.535 97.6279C659.514 97.6279 664.36 97.7958 664.36 98.0037Z" fill="#E1E1E1"/>
<path d="M664.36 152.008C664.36 152.215 659.514 152.383 653.535 152.383C647.557 152.383 642.712 152.215 642.712 152.008C642.712 151.8 647.557 151.632 653.535 151.632C659.514 151.632 664.36 151.8 664.36 152.008Z" fill="#E1E1E1"/>
<path d="M664.36 148.762C664.36 148.97 659.514 149.138 653.535 149.138C647.557 149.138 642.712 148.97 642.712 148.762C642.712 148.554 647.557 148.386 653.535 148.386C659.514 148.386 664.36 148.554 664.36 148.762Z" fill="#E1E1E1"/>
<path d="M653.885 141.679C653.677 141.679 653.509 133.884 653.509 124.269C653.509 114.651 653.677 106.857 653.885 106.857C654.091 106.857 654.26 114.651 654.26 124.269C654.26 133.884 654.091 141.679 653.885 141.679Z" fill="#E1E1E1"/>
<path d="M688.159 163.662H664.593V105.34H688.159V163.662Z" fill="#ECECEC"/>
<path d="M639.569 84.8934C639.569 87.1062 637.777 88.8984 635.564 88.8984C633.353 88.8984 631.561 87.1062 631.561 84.8934C631.561 82.6822 633.353 80.89 635.564 80.89C637.777 80.89 639.569 82.6822 639.569 84.8934Z" fill="#E1E1E1"/>
<path d="M636.802 152.629H634.326V95.9068H636.802V152.629Z" fill="#E1E1E1"/>
</g>
<mask id="mask1_604_93716" style="mask-type:alpha" maskUnits="userSpaceOnUse" x="0" y="0" width="832" height="832">
<path d="M0 -0.000164032H831.272V831.271H0V-0.000164032Z" fill="white"/>
</mask>
<g mask="url(#mask1_604_93716)">
<path d="M691.166 184.401L687.643 178.67C657.95 130.355 604.266 101.229 547.667 104.764C540.393 105.218 533.148 106.19 526 107.702C474.54 118.578 429.764 157.006 411.203 206.22C400.289 235.164 397.238 268.489 376.524 291.462C349.566 321.362 303.796 322.301 263.558 321.062C223.319 319.824 177.52 320.879 150.693 350.898C133.891 369.697 128.551 396.432 129.906 421.608C133.494 488.264 180.529 547.863 240.347 577.488C300.167 607.113 370.596 609.766 436.063 596.734C527.776 578.477 614.995 528.343 667.418 450.909C719.841 373.474 733.11 267.979 691.166 184.401Z" fill="#ECECEC"/>
</g>
<mask id="mask2_604_93716" style="mask-type:alpha" maskUnits="userSpaceOnUse" x="0" y="0" width="832" height="832">
<path d="M0 -0.000164032H831.272V831.271H0V-0.000164032Z" fill="white"/>
</mask>
<g mask="url(#mask2_604_93716)">
<path d="M772.512 763.69C772.512 763.931 612.72 764.124 415.654 764.124C218.516 764.124 58.7593 763.931 58.7593 763.69C58.7593 763.451 218.516 763.258 415.654 763.258C612.72 763.258 772.512 763.451 772.512 763.69Z" fill="#1A2E35"/>
</g>
<mask id="mask3_604_93716" style="mask-type:alpha" maskUnits="userSpaceOnUse" x="0" y="0" width="832" height="832">
<path d="M0 -0.000164032H831.272V831.271H0V-0.000164032Z" fill="white"/>
</mask>
<g mask="url(#mask3_604_93716)">
<path d="M248.066 153.536C255.87 163.006 260.199 175.278 260.066 187.549C259.99 194.56 258.698 202.294 262.778 207.998C265.873 212.327 271.518 214.495 274.035 219.185C277.059 224.826 274.48 231.952 276.341 238.075C278.979 246.759 289.149 250.388 295.179 257.169C300.408 263.05 302.343 271.655 300.236 279.238C298.13 286.819 292.085 293.165 284.648 295.737C280.655 297.119 276.09 297.416 272.309 295.531C268.231 293.499 265.71 289.328 263.667 285.255C259.652 277.25 224.454 233.929 222.461 225.199" fill="#1A2E35"/>
<path d="M222.461 143.324C208.068 141.007 194.234 150.563 188.171 163.82C182.106 177.077 181.939 192.155 181.492 206.727C181.045 221.299 180.023 236.51 172.583 249.049C167.863 257.007 160.551 263.987 159.404 273.169C158.378 281.389 162.634 289.668 161.221 297.833C159.991 304.939 154.574 311.123 154.788 318.332C155.048 327.005 163.969 333.541 172.642 333.774C181.316 334.006 189.421 329.461 196.221 324.071C207.255 315.328 216.199 303.963 222.105 291.181" fill="#1A2E35"/>
<path d="M198.781 177.648C196.879 162.469 207.86 148.597 223.274 147.129C237.801 145.744 250.712 156.561 252.888 170.991C254.797 183.64 256.438 196.41 256.38 201.047C256.202 215.032 248.019 220.477 244.702 222.111C243.946 222.484 241.858 222.908 241.021 223.027C240.97 223.034 240.933 223.084 240.945 223.136L244.05 239.189C245.457 249.708 239.586 259.088 229.086 260.619C218.549 262.155 210.312 254.077 208.705 243.552L198.781 177.648Z" fill="#FFBF9D"/>
<path d="M250.029 177.117C249.798 177.445 247.951 176.454 245.585 176.807C243.216 177.122 241.656 178.594 241.357 178.341C241.213 178.231 241.414 177.673 242.09 177.013C242.755 176.356 243.947 175.636 245.422 175.427C246.898 175.22 248.219 175.583 249.013 176.035C249.821 176.487 250.144 176.969 250.029 177.117Z" fill="#1A2E35"/>
<path d="M228.977 182.232C228.746 182.559 226.898 181.568 224.533 181.921C222.164 182.237 220.605 183.708 220.306 183.455C220.161 183.346 220.36 182.787 221.04 182.127C221.704 181.469 222.896 180.75 224.371 180.541C225.847 180.335 227.167 180.697 227.962 181.149C228.77 181.602 229.092 182.084 228.977 182.232Z" fill="#1A2E35"/>
<path d="M237.608 194.922C237.576 194.789 239.011 194.32 241.352 193.668C241.947 193.517 242.501 193.314 242.544 192.885C242.622 192.428 242.275 191.815 241.879 191.153C241.098 189.773 240.278 188.327 239.42 186.812C235.982 180.619 233.4 175.492 233.651 175.356C233.901 175.219 236.89 180.129 240.328 186.32C241.161 187.85 241.957 189.306 242.715 190.701C243.045 191.354 243.552 192.076 243.375 193.027C243.279 193.502 242.882 193.895 242.511 194.056C242.14 194.23 241.801 194.287 241.505 194.348C239.124 194.827 237.636 195.055 237.608 194.922Z" fill="#1A2E35"/>
<path d="M240.926 223.041C240.926 223.041 231.895 225.123 219.46 219.919C219.46 219.919 224.829 231.475 241.762 227.367L240.926 223.041Z" fill="#FF9A6C"/>
<path d="M227.787 176.03C227.647 176.707 225.238 176.747 222.51 177.487C219.767 178.172 217.645 179.311 217.193 178.789C216.989 178.536 217.291 177.872 218.106 177.118C218.912 176.365 220.259 175.565 221.898 175.136C223.539 174.71 225.105 174.752 226.176 175.016C227.257 175.279 227.843 175.71 227.787 176.03Z" fill="#1A2E35"/>
<path d="M248.088 171.871C247.748 172.47 246.038 172.149 244.071 172.41C242.097 172.6 240.503 173.298 240.039 172.792C239.831 172.543 240.016 171.966 240.666 171.353C241.306 170.741 242.442 170.151 243.797 169.996C245.15 169.841 246.389 170.159 247.152 170.611C247.925 171.062 248.232 171.582 248.088 171.871Z" fill="#1A2E35"/>
<path d="M223.847 185.288C224.01 186.315 225.013 187.025 226.09 186.876C227.164 186.726 227.905 185.773 227.744 184.746C227.581 183.718 226.577 183.007 225.503 183.156C224.426 183.306 223.684 184.26 223.847 185.288Z" fill="#1A2E35"/>
<path d="M244.808 180.753C244.969 181.781 245.973 182.491 247.05 182.341C248.124 182.191 248.866 181.239 248.703 180.211C248.542 179.184 247.538 178.472 246.463 178.622C245.386 178.771 244.645 179.726 244.808 180.753Z" fill="#1A2E35"/>
<path d="M241.331 199.532C239.808 199.091 238.498 199.861 237.879 200.966C237.261 202.07 237.409 203.582 238.298 204.481C239.188 205.382 240.771 205.523 241.753 204.725C242.418 204.183 242.752 203.319 242.839 202.464C242.917 201.675 242.787 200.83 242.3 200.205C241.815 199.578 240.912 199.242 240.187 199.565" fill="#FF9A6C"/>
<path d="M251.044 159.676C249.962 154.416 246.339 149.928 241.93 146.863C238.184 144.257 233.755 142.535 229.195 142.395C224.635 142.256 219.961 143.789 216.666 146.946C214.23 149.278 212.984 152.582 212.871 155.952L213.135 153.626C212.452 155.536 212.453 157.608 213.163 159.485L213.166 159.496L213.165 159.488C213.55 160.507 214.014 161.525 214.423 162.547C215.585 165.451 217.84 167.905 220.638 169.309C221.926 169.957 223.355 170.389 224.794 170.321C226.236 170.253 227.687 169.633 228.563 168.486C229.812 166.848 229.667 164.577 229.463 162.527C230.7 164.459 232.013 166.464 234.001 167.608C235.988 168.75 238.861 168.71 240.259 166.893C241.614 165.132 241.079 162.604 240.294 160.527C241.564 162.464 243.385 164.037 245.486 165.013C246.648 165.553 248.02 165.909 249.197 165.4C250.195 164.968 250.868 163.968 251.122 162.911C251.377 161.854 251.264 160.741 251.044 159.676Z" fill="#1A2E35"/>
<path d="M239.031 164.019C238.881 164.024 238.906 162.047 238.266 158.982C237.625 155.967 236.098 151.708 232.524 148.559C230.765 147.005 228.74 145.929 226.771 145.453C224.801 144.966 222.928 145.024 221.42 145.319C218.361 145.941 216.881 147.392 216.79 147.239C216.76 147.206 217.077 146.817 217.809 146.286C218.537 145.759 219.707 145.124 221.285 144.722C222.856 144.333 224.843 144.202 226.956 144.677C229.071 145.143 231.239 146.268 233.099 147.911C236.876 151.242 238.369 155.76 238.868 158.867C239.122 160.451 239.177 161.746 239.167 162.636C239.156 163.529 239.086 164.019 239.031 164.019Z" fill="#375A64"/>
<path d="M392.151 357.856L328.224 332.514C328.224 332.514 295.475 289.568 296.159 288.736L273.172 313.911L306.583 359.139L384.002 377.263L420.668 377.559C417.832 363.457 392.151 357.856 392.151 357.856Z" fill="#FFBF9D"/>
<path d="M252.818 235.347L244.115 231.972L206.506 236.742V243.386L205.429 243.519C205.429 243.519 193.748 245.642 182.391 252.46C168.64 260.716 161.493 276.64 164.04 292.477C165.569 301.987 168.534 313.547 174.245 320.227C185.167 333.003 195.143 317.213 195.143 317.213C195.143 317.213 201.997 332.849 201.603 340.245C201.274 346.438 198.534 359.343 197.653 363.373C197.505 364.053 197.951 364.708 198.636 364.835L277.969 379.501L278.356 360.111L275.834 280.356L272.333 249.381C272.333 249.381 272.444 234.583 252.818 235.347" fill="#26ADB6"/>
<path d="M271.116 244.227L301.364 287.932L277.011 317.597L271.116 244.227Z" fill="#26ADB6"/>
<path d="M277.6 336.199C277.54 336.198 277.5 335.193 277.482 333.38C277.457 331.419 277.426 328.829 277.386 325.7C277.229 319.223 276.864 310.265 275.574 300.468C274.32 290.662 272.415 281.902 270.957 275.586C270.24 272.539 269.647 270.017 269.199 268.11C268.784 266.342 268.583 265.358 268.641 265.342C268.699 265.327 269.01 266.283 269.525 268.023C270.042 269.764 270.744 272.296 271.552 275.443C273.164 281.729 275.173 290.504 276.431 300.356C277.728 310.2 277.998 319.2 277.998 325.694C277.966 328.942 277.919 331.571 277.818 333.385C277.735 335.198 277.66 336.201 277.6 336.199Z" fill="#1A2E35"/>
<path d="M203.168 269.746C203.163 269.886 200.872 269.858 197.19 270.055C193.507 270.248 188.43 270.752 182.925 271.888C177.419 273.033 172.559 274.586 169.103 275.873C165.645 277.155 163.555 278.091 163.495 277.964C163.469 277.909 163.964 277.62 164.887 277.14C165.803 276.652 167.166 276.019 168.88 275.302C172.303 273.861 177.186 272.197 182.749 271.04C188.312 269.893 193.456 269.48 197.168 269.442C199.025 269.42 200.528 269.46 201.564 269.543C202.6 269.617 203.17 269.686 203.168 269.746Z" fill="#FAFAFA"/>
<path d="M273.236 289.756C273.253 289.868 271.82 290.215 269.464 290.576C267.111 290.937 263.833 291.284 260.198 291.412C256.562 291.533 253.267 291.412 250.895 291.211C248.521 291.011 247.068 290.764 247.078 290.652C247.088 290.526 248.557 290.557 250.926 290.599C253.294 290.642 256.562 290.667 260.169 290.546C263.775 290.421 267.033 290.172 269.392 289.967C271.751 289.764 273.216 289.631 273.236 289.756Z" fill="#FAFAFA"/>
<path d="M287.122 269.975C287.275 270.137 284.599 272.812 280.633 275.226C276.677 277.658 273.075 278.822 273.004 278.612C272.908 278.374 276.302 276.873 280.181 274.486C284.072 272.122 286.954 269.782 287.122 269.975Z" fill="#FAFAFA"/>
<path d="M274.897 249.711C275.045 249.857 271.478 253.066 266.087 255.327C260.71 257.626 255.925 257.955 255.924 257.746C255.877 257.48 260.504 256.777 265.749 254.529C271.013 252.326 274.737 249.493 274.897 249.711Z" fill="#FAFAFA"/>
<path d="M276.548 323.591C276.572 323.646 276.011 323.936 274.977 324.417C273.946 324.906 272.417 325.531 270.5 326.234C266.673 327.642 261.225 329.213 255.057 330.168C248.885 331.109 243.216 331.245 239.141 331.051C237.103 330.956 235.457 330.818 234.326 330.66C233.194 330.513 232.574 330.404 232.581 330.344C232.594 330.203 235.103 330.405 239.156 330.439C243.209 330.475 248.814 330.244 254.925 329.311C261.032 328.367 266.448 326.906 270.302 325.654C274.159 324.407 276.492 323.459 276.548 323.591" fill="#FAFAFA"/>
<path d="M277.164 346.132C277.177 346.16 276.931 346.297 276.456 346.534C275.882 346.805 275.189 347.136 274.349 347.534C272.52 348.401 269.812 349.527 266.421 350.794C263.032 352.077 258.924 353.402 254.304 354.671C249.672 355.896 244.523 357.038 239.062 357.903C233.59 358.734 228.337 359.205 223.55 359.442C218.764 359.632 214.444 359.614 210.828 359.419C207.212 359.238 204.29 358.985 202.285 358.713C201.365 358.588 200.604 358.485 199.975 358.398C199.448 358.319 199.174 358.26 199.177 358.23C199.182 358.2 199.463 358.2 199.995 358.225C200.625 358.267 201.392 358.317 202.316 358.377C204.328 358.546 207.247 358.704 210.85 358.807C214.456 358.924 218.752 358.879 223.512 358.644C228.268 358.367 233.489 357.873 238.927 357.047C244.36 356.187 249.483 355.075 254.099 353.899C258.706 352.679 262.814 351.422 266.214 350.219C269.618 349.03 272.351 347.994 274.218 347.223C275.081 346.885 275.794 346.606 276.384 346.375C276.883 346.19 277.152 346.105 277.164 346.132Z" fill="#FAFAFA"/>
<path d="M131.287 699.559L122.301 740.182L105.93 770.259C104.751 772.429 105.654 775.142 107.896 776.171C109.152 776.748 110.596 776.688 111.793 775.996C119.409 771.594 147.348 755.268 147.841 752.257C148.409 748.772 160.163 710.038 160.163 710.038L131.287 699.559Z" fill="#26ADB6"/>
<mask id="mask4_604_93716" style="mask-type:alpha" maskUnits="userSpaceOnUse" x="107" y="749" width="42" height="28">
<path d="M107.895 749.531H148.509V776.606H107.895V749.531Z" fill="white"/>
</mask>
<g mask="url(#mask4_604_93716)">
<g opacity="0.600006">
<path d="M107.896 776.171L148.51 749.532L148.09 751.243C147.727 752.722 146.856 754.029 145.621 754.92C142.316 757.304 133.044 763.694 111.916 776.026C110.687 776.745 109.173 776.799 107.896 776.171Z" fill="white"/>
</g>
</g>
<mask id="mask5_604_93716" style="mask-type:alpha" maskUnits="userSpaceOnUse" x="141" y="734" width="6" height="6">
<path d="M141.813 734.293H146.705V739.192H141.813V734.293Z" fill="white"/>
</mask>
<g mask="url(#mask5_604_93716)">
<g opacity="0.600006">
<path d="M143.415 734.463C142.231 734.913 141.524 736.365 141.927 737.565C142.329 738.767 143.797 739.497 144.989 739.068C146.181 738.637 147.082 736.922 146.548 735.773C146.013 734.626 144.242 733.861 143.188 734.564" fill="white"/>
</g>
</g>
<path d="M121.461 760.784C121.205 760.839 120.813 758.5 118.69 756.771C116.617 754.98 114.246 755.002 114.256 754.741C114.246 754.633 114.835 754.445 115.812 754.543C116.783 754.634 118.116 755.102 119.277 756.071C120.432 757.043 121.126 758.275 121.385 759.216C121.653 760.162 121.57 760.774 121.461 760.784Z" fill="#1A2E35"/>
<path d="M117.257 765.488C117.02 765.616 116.046 763.983 114.104 762.873C112.186 761.717 110.286 761.663 110.282 761.397C110.217 761.16 112.372 760.781 114.567 762.085C116.774 763.365 117.494 765.431 117.257 765.488Z" fill="#1A2E35"/>
<path d="M128.52 755.163C128.284 755.308 126.796 752.791 123.927 750.798C121.087 748.759 118.219 748.202 118.276 747.93C118.264 747.699 121.403 747.873 124.454 750.051C127.526 752.197 128.743 755.097 128.52 755.163Z" fill="#1A2E35"/>
<path d="M132.283 743.043C132.116 743.258 130.112 741.778 127.234 740.96C124.366 740.102 121.883 740.277 121.858 740.004C121.793 739.78 124.405 739.17 127.49 740.084C130.581 740.97 132.456 742.886 132.283 743.043Z" fill="#1A2E35"/>
<path d="M135.223 731.185C135.04 731.387 133.126 729.49 130.024 728.879C126.935 728.197 124.423 729.168 124.336 728.91C124.292 728.809 124.857 728.41 125.921 728.101C126.977 727.788 128.543 727.638 130.21 727.984C131.876 728.335 133.253 729.1 134.096 729.81C134.945 730.52 135.304 731.111 135.223 731.185Z" fill="#1A2E35"/>
<path d="M130.649 726.639C130.598 726.627 130.639 726.06 130.969 725.096C131.299 724.14 131.936 722.77 133.166 721.392C133.787 720.748 134.478 719.894 135.737 719.64C136.364 719.508 137.173 719.817 137.521 720.471C137.868 721.108 137.856 721.808 137.714 722.451C137.042 725.006 134.23 726.946 131.256 726.606C128.282 726.213 126.064 723.916 125.459 721.42C125.349 720.785 125.349 720.04 125.83 719.435C126.307 718.822 127.195 718.748 127.75 718.99C128.905 719.465 129.492 720.341 130.071 721.026C131.19 722.487 131.762 723.876 132.059 724.842C132.355 725.814 132.388 726.38 132.337 726.391C132.171 726.463 131.803 724.157 129.569 721.432C128.993 720.79 128.345 719.997 127.501 719.706C127.09 719.56 126.686 719.64 126.453 719.942C126.219 720.231 126.179 720.758 126.287 721.262C126.811 723.312 128.844 725.407 131.364 725.701C133.868 726.01 136.335 724.301 136.896 722.25C137.022 721.754 137.014 721.222 136.819 720.862C136.63 720.507 136.252 720.33 135.841 720.389C134.979 720.512 134.242 721.234 133.637 721.832C131.208 724.383 130.819 726.724 130.649 726.639Z" fill="#1A2E35"/>
<mask id="mask6_604_93716" style="mask-type:alpha" maskUnits="userSpaceOnUse" x="128" y="699" width="33" height="20">
<path d="M128.296 699.561H160.163V718.164H128.296V699.561Z" fill="white"/>
</mask>
<g mask="url(#mask6_604_93716)">
<g opacity="0.300003">
<path d="M130.238 703.968L128.295 713.284L157.709 718.164L160.163 710.038L131.286 699.56L130.238 703.968Z" fill="black"/>
</g>
</g>
<path d="M262.72 714.592L260.291 747.052C260.291 747.052 292.47 760.42 292.604 766.463L229.499 764.016L231.206 713.285L262.72 714.592Z" fill="#26ADB6"/>
<mask id="mask7_604_93716" style="mask-type:alpha" maskUnits="userSpaceOnUse" x="238" y="743" width="6" height="6">
<path d="M238.951 743.473H243.883V748.382H238.951V743.473Z" fill="white"/>
</mask>
<g mask="url(#mask7_604_93716)">
<g opacity="0.600006">
<path d="M240.884 743.56C239.65 743.848 238.752 745.188 238.989 746.433C239.223 747.678 240.578 748.601 241.818 748.336C243.057 748.072 244.184 746.496 243.81 745.284C243.437 744.075 241.785 743.076 240.646 743.63" fill="white"/>
</g>
</g>
<mask id="mask8_604_93716" style="mask-type:alpha" maskUnits="userSpaceOnUse" x="229" y="758" width="64" height="9">
<path d="M229.499 758.909H292.642V766.463H229.499V758.909Z" fill="white"/>
</mask>
<g mask="url(#mask8_604_93716)">
<g opacity="0.600006">
<path d="M229.499 764.015L229.871 758.909L290.236 763.165C290.236 763.165 292.999 764.497 292.605 766.464L229.499 764.015Z" fill="white"/>
</g>
</g>
<path d="M261.326 746.77C261.305 747.079 259.758 747.157 258.204 748.09C256.625 748.981 255.792 750.286 255.512 750.153C255.23 750.082 255.762 748.258 257.664 747.162C259.556 746.05 261.404 746.491 261.326 746.77Z" fill="#1A2E35"/>
<path d="M267.84 749.765C267.899 750.066 266.544 750.538 265.447 751.802C264.312 753.032 263.994 754.43 263.686 754.405C263.396 754.442 263.253 752.63 264.647 751.085C266.027 749.529 267.845 749.469 267.84 749.765Z" fill="#1A2E35"/>
<path d="M271.291 757.833C271.008 757.888 270.639 756.332 271.497 754.674C272.342 753.012 273.82 752.402 273.941 752.664C274.106 752.924 273.135 753.791 272.452 755.165C271.738 756.518 271.599 757.813 271.291 757.833Z" fill="#1A2E35"/>
<path d="M261.059 739.311C260.919 739.587 259.523 739.108 257.775 739.158C256.028 739.173 254.65 739.705 254.5 739.434C254.33 739.206 255.697 738.116 257.755 738.086C259.812 738.037 261.22 739.075 261.059 739.311Z" fill="#1A2E35"/>
<mask id="mask9_604_93716" style="mask-type:alpha" maskUnits="userSpaceOnUse" x="230" y="718" width="33" height="9">
<path d="M230.803 718.631H262.231V726.806H230.803V718.631Z" fill="white"/>
</mask>
<g mask="url(#mask9_604_93716)">
<g opacity="0.300003">
<path d="M262.231 721.021L261.807 726.805L230.802 725.321L231.012 718.632L262.231 721.021Z" fill="black"/>
</g>
</g>
<path d="M261.428 732.753C261.427 732.881 260.202 733.024 258.268 732.615C257.307 732.409 256.178 732.048 255.001 731.471C254.414 731.182 253.814 730.84 253.224 730.437C252.941 730.238 252.602 730.037 252.298 729.657C251.97 729.323 251.807 728.497 252.22 728.012C252.562 727.539 253.142 727.353 253.598 727.36C254.063 727.363 254.436 727.471 254.777 727.569C255.473 727.767 256.123 728.027 256.717 728.321C257.901 728.914 258.853 729.648 259.556 730.346C260.968 731.757 261.422 732.928 261.315 732.986C261.171 733.081 260.496 732.09 259.049 730.913C258.328 730.326 257.402 729.714 256.293 729.214C255.738 728.968 255.136 728.751 254.501 728.583C253.839 728.382 253.27 728.356 253.086 728.647C253.019 728.758 253.011 728.801 253.142 729.002C253.28 729.189 253.543 729.377 253.822 729.573C254.366 729.958 254.916 730.296 255.455 730.592C256.536 731.182 257.573 731.594 258.466 731.882C260.253 732.456 261.44 732.587 261.428 732.753Z" fill="#1A2E35"/>
<path d="M261.01 733.181C260.9 733.222 260.33 732.097 260.295 730.097C260.281 729.104 260.429 727.907 260.86 726.652C261.079 726.025 261.367 725.388 261.74 724.765C262.134 724.155 262.617 723.337 263.818 723.247C264.443 723.247 264.943 723.756 265.103 724.18C265.296 724.615 265.322 724.981 265.382 725.35C265.47 726.091 265.429 726.815 265.302 727.478C265.051 728.815 264.458 729.91 263.826 730.692C262.529 732.279 261.229 732.597 261.207 732.492C261.111 732.333 262.208 731.781 263.213 730.244C263.708 729.488 264.16 728.484 264.328 727.315C264.411 726.732 264.426 726.111 264.34 725.486C264.267 724.811 264.037 724.261 263.783 724.319C263.469 724.303 262.917 724.786 262.637 725.312C262.291 725.865 262.011 726.434 261.788 726.994C261.349 728.12 261.134 729.204 261.053 730.125C260.895 731.972 261.179 733.141 261.01 733.181Z" fill="#1A2E35"/>
<path d="M197.382 364.603C197.382 364.603 187.362 365.042 180.76 399.16C174.158 433.279 123.41 709.707 123.41 709.707L160.162 710.038L229.499 447.229L224.892 718.164L262.231 721.022C262.231 721.022 290.251 421.289 290.516 403.847C290.845 382.106 278.358 360.112 278.358 360.112L197.382 364.603Z" fill="#1A2E35"/>
<path d="M247.898 361.682C248.132 361.73 244.318 381.221 239.38 405.212C234.441 429.211 230.248 448.621 230.014 448.573C229.779 448.523 233.593 429.036 238.533 405.037C243.47 381.047 247.663 361.633 247.898 361.682Z" fill="#375A64"/>
<path d="M253.629 366.549C253.566 366.464 254.625 366.15 255.765 367.17C256.289 367.659 256.806 368.475 256.768 369.521C256.746 370.577 255.948 371.606 254.886 372.042C253.832 372.499 252.536 372.352 251.765 371.628C250.992 370.926 250.767 369.987 250.782 369.268C250.849 367.741 251.813 367.204 251.83 367.307C251.945 367.393 251.29 368.018 251.394 369.252C251.451 369.84 251.708 370.559 252.282 371.019C252.836 371.493 253.738 371.583 254.55 371.245C255.358 370.901 255.921 370.191 255.971 369.465C256.041 368.731 255.707 368.046 255.326 367.596C254.517 366.658 253.61 366.69 253.629 366.549Z" fill="#375A64"/>
<path d="M252.036 380.06C252.015 379.955 253.07 380.095 253.647 381.445C253.903 382.082 254.018 383.003 253.546 383.891C253.082 384.8 251.941 385.337 250.846 385.239C249.749 385.166 248.705 384.459 248.387 383.49C248.056 382.537 248.314 381.646 248.665 381.056C249.444 379.812 250.51 379.839 250.472 379.939C250.525 380.068 249.687 380.275 249.207 381.342C248.981 381.852 248.864 382.566 249.132 383.202C249.376 383.839 250.088 384.31 250.912 384.376C251.737 384.438 252.515 384.084 252.854 383.492C253.217 382.905 253.213 382.183 253.069 381.645C252.758 380.514 251.963 380.182 252.036 380.06Z" fill="#375A64"/>
<path d="M216.816 366.892C216.866 366.907 216.734 367.523 216.377 368.6C216.025 369.679 215.403 371.208 214.44 373.002C212.545 376.582 209.01 381.197 203.775 384.645C198.54 388.096 192.904 389.525 188.867 389.855C186.839 390.032 185.189 390 184.057 389.9C182.927 389.802 182.311 389.681 182.316 389.628C182.323 389.466 184.827 389.749 188.799 389.247C192.749 388.766 198.205 387.28 203.299 383.923C208.392 380.567 211.91 376.139 213.906 372.701C215.936 369.248 216.663 366.836 216.816 366.892Z" fill="#375A64"/>
<path d="M288.329 391.14C288.294 391.189 287.905 390.951 287.225 390.475C286.537 390.015 285.616 389.237 284.56 388.194C282.443 386.118 279.946 382.745 278.297 378.49C276.664 374.229 276.25 370.051 276.428 367.092C276.51 365.61 276.671 364.415 276.872 363.612C277.057 362.804 277.186 362.367 277.245 362.378C277.401 362.407 277.047 364.199 277.04 367.107C277.024 370.008 277.521 374.039 279.105 378.179C280.709 382.309 283.045 385.632 285.004 387.772C286.961 389.923 288.425 391.014 288.329 391.14Z" fill="#375A64"/>
<path d="M182.766 298.852L199.096 299.755C200.128 305.049 203.713 313.143 203.713 313.143C216.857 290.328 227.047 259.759 229.577 247.475C229.21 246.248 228.772 244.889 228.227 243.373C227.599 241.621 228.137 238.306 228.435 236.465C228.875 233.729 229.64 230.05 229.871 228.345C230.571 223.155 231.406 222.339 233.218 222.927C235.682 223.725 232.209 237.504 234.227 237.804C235.311 237.963 236.638 233.243 237.022 229.37C237.408 225.496 239.158 213.58 240.438 212.786C242.315 211.622 243.953 213.464 243.477 217.321C242.999 221.226 242.393 232.869 244.44 233.026C246.458 233.18 248.151 213.426 248.151 213.426C248.151 213.426 247.832 209.126 250.202 209.23C254.477 209.416 251.137 230.242 250.771 232.216C250.515 233.589 252.736 233.84 252.931 232.351C253.132 230.818 254.164 212.595 258.517 212.741C261.857 212.854 255.928 229.903 257.804 233.857C259.681 237.807 260.982 220.433 264.173 220.673C265.36 220.761 266.238 220.994 264.056 230.826C262.883 236.111 259.44 245.827 256.429 253.872C251.375 281.138 229.188 368.36 194.407 352.394C174.944 343.46 165.863 299.226 165.863 299.226L182.766 298.852Z" fill="#FFBF9D"/>
<path d="M256.429 253.888C256.412 253.881 256.467 253.68 256.595 253.291C256.743 252.85 256.936 252.285 257.177 251.575C257.719 250.004 258.482 247.799 259.451 244.993C260.422 242.13 261.612 238.625 262.796 234.507C263.401 232.451 263.893 230.225 264.351 227.836C264.572 226.642 264.8 225.413 264.938 224.151C264.996 223.525 265.062 222.88 265.026 222.261C264.979 221.613 264.879 221.084 264.369 221.074C263.839 220.931 263.484 221.368 263.12 221.919C262.788 222.472 262.527 223.111 262.296 223.762C261.83 225.071 261.464 226.466 261.104 227.892C260.741 229.319 260.407 230.785 259.973 232.28C259.711 233.034 259.596 233.764 258.976 234.574C258.859 234.672 258.755 234.803 258.52 234.848C258.264 234.913 258.075 234.815 257.895 234.707C257.656 234.494 257.541 234.28 257.436 234.08C257.248 233.659 257.135 233.229 257.085 232.812C256.788 229.475 257.549 226.249 258.07 222.901C258.356 221.232 258.658 219.543 258.876 217.832C258.982 216.979 259.072 216.116 259.084 215.267C259.115 214.479 258.976 213.415 258.632 213.263C258.206 213.104 257.434 213.586 257.029 214.291C256.57 214.986 256.231 215.807 255.94 216.648C255.363 218.339 254.987 220.141 254.661 221.967C254.345 223.797 254.098 225.663 253.893 227.553C253.8 228.499 253.707 229.452 253.614 230.407L253.488 231.851C253.453 232.241 253.453 233.058 252.828 233.526C252.251 233.96 251.478 234.007 250.861 233.605C250.552 233.405 250.31 233.034 250.264 232.659C250.224 232.469 250.259 232.293 250.272 232.127L250.335 231.771C250.483 230.807 250.631 229.837 250.781 228.865C251.055 226.911 251.293 224.938 251.481 222.948C251.667 220.958 251.807 218.948 251.837 216.931C251.84 214.936 251.825 212.844 251.251 211.017C251.062 210.462 250.756 209.958 250.412 209.814C250.059 209.687 249.551 209.815 249.29 210.173C248.714 210.981 248.618 212.316 248.665 213.401L248.666 213.455L248.665 213.484C248.309 217.391 247.883 221.23 247.32 225.004C247.03 226.891 246.723 228.76 246.247 230.607C246.129 231.068 245.988 231.53 245.825 231.99C245.604 232.451 245.544 232.92 244.884 233.427C244.312 233.699 243.888 233.388 243.662 233.157C243.419 232.903 243.321 232.654 243.21 232.408C243.017 231.917 242.92 231.445 242.836 230.973C242.307 227.225 242.526 223.619 242.738 220.083C242.807 218.306 243.24 216.547 243.007 214.987C242.894 214.214 242.591 213.438 242.079 213.094C241.827 212.928 241.537 212.889 241.226 212.962C241.072 213.011 240.915 213.066 240.762 213.157C240.613 213.282 240.643 213.235 240.53 213.445C239.881 214.803 239.567 216.52 239.218 218.075C238.89 219.666 238.613 221.247 238.357 222.81C238.106 224.371 237.88 225.914 237.682 227.433C237.474 228.941 237.371 230.469 237.075 231.954C236.792 233.433 236.45 234.873 235.911 236.255C235.777 236.599 235.619 236.94 235.431 237.275C235.198 237.588 235.067 237.995 234.43 238.19C234.066 238.29 233.752 238.042 233.589 237.834C233.449 237.62 233.381 237.415 233.326 237.221C233.241 236.837 233.205 236.469 233.191 236.113C233.155 233.279 233.575 230.682 233.717 228.173C233.795 226.928 233.851 225.698 233.707 224.56C233.634 224.028 233.461 223.402 233.156 223.277C232.711 223.099 232.136 223.006 231.801 223.247C231.067 223.777 230.812 224.994 230.571 225.969C230.337 226.996 230.23 228.015 230.041 228.998C229.349 232.931 228.616 236.308 228.262 239.068C228.099 240.448 228.032 241.693 228.209 242.73C228.44 243.738 228.776 244.627 228.97 245.327C229.168 245.989 229.324 246.518 229.447 246.933C229.55 247.296 229.594 247.483 229.577 247.488C229.56 247.493 229.484 247.316 229.351 246.963C229.204 246.556 229.015 246.039 228.781 245.389C228.549 244.68 228.202 243.871 227.918 242.785C227.703 241.696 227.743 240.428 227.876 239.026C228.177 236.216 228.85 232.863 229.487 228.923C229.663 227.944 229.758 226.901 229.988 225.844C230.106 225.313 230.222 224.775 230.425 224.233C230.636 223.709 230.862 223.104 231.466 222.708C232.111 222.306 232.824 222.452 233.429 222.682C234.207 223.127 234.235 223.877 234.372 224.462C234.541 225.706 234.49 226.948 234.423 228.216C234.3 230.74 233.908 233.392 233.964 236.077C233.978 236.408 234.018 236.732 234.084 237.028C234.154 237.352 234.32 237.475 234.287 237.413C234.345 237.425 234.598 237.137 234.741 236.876C234.897 236.59 235.038 236.281 235.163 235.959C235.66 234.664 235.991 233.244 236.255 231.804C236.533 230.368 236.624 228.868 236.827 227.325C237.018 225.794 237.236 224.243 237.482 222.67C237.73 221.097 238.003 219.503 238.327 217.892C238.696 216.273 238.932 214.672 239.718 212.984C239.767 212.814 240.111 212.435 240.302 212.344C240.513 212.219 240.751 212.125 241.002 212.051C241.509 211.917 242.129 211.992 242.59 212.302C243.506 212.947 243.793 213.952 243.948 214.841C244.086 215.754 244.039 216.678 243.935 217.558C243.837 218.411 243.767 219.28 243.704 220.151C243.502 223.631 243.311 227.274 243.82 230.802C243.896 231.232 243.991 231.664 244.139 232.032C244.214 232.205 244.302 232.388 244.387 232.464C244.43 232.522 244.457 232.519 244.47 232.529L244.477 232.531L244.478 232.537C244.448 232.926 244.475 232.619 244.467 232.695C244.463 232.622 244.445 232.637 244.4 232.552C244.485 232.482 244.751 232.025 244.881 231.639C245.027 231.225 245.158 230.793 245.271 230.351C245.724 228.577 246.029 226.72 246.314 224.853C246.866 221.112 247.286 217.277 247.637 213.396V213.478C247.617 212.199 247.596 210.859 248.478 209.534C248.994 208.881 249.925 208.527 250.798 208.856C251.662 209.26 251.983 210.035 252.226 210.675C252.884 212.803 252.862 214.888 252.867 216.946C252.836 219.004 252.693 221.036 252.503 223.044C252.311 225.054 252.069 227.041 251.79 229.008C251.639 229.989 251.488 230.968 251.336 231.942C251.213 232.56 251.243 232.58 251.428 232.763C251.627 232.915 252.013 232.891 252.202 232.733C252.414 232.59 252.439 232.301 252.483 231.761L252.611 230.318C252.708 229.355 252.804 228.397 252.899 227.445C253.109 225.538 253.365 223.653 253.69 221.796C254.028 219.942 254.414 218.106 255.024 216.331C255.335 215.446 255.692 214.57 256.232 213.752C256.508 213.35 256.829 212.947 257.3 212.65C257.78 212.374 258.309 212.123 259.029 212.399C259.712 212.773 259.829 213.405 259.937 213.865C260.008 214.349 260.038 214.821 260.025 215.277C260.008 216.193 259.912 217.077 259.799 217.952C259.569 219.696 259.257 221.39 258.962 223.057C258.422 226.369 257.672 229.666 257.933 232.692C257.973 233.066 258.071 233.407 258.198 233.706C258.274 233.859 258.361 233.984 258.412 234.038C258.42 234.02 258.4 234.009 258.372 234.112C258.357 234.246 258.375 234.083 258.356 234.105C258.292 234.002 258.339 234.032 258.366 233.994C258.715 233.563 258.962 232.73 259.18 232.043C259.612 230.592 259.958 229.124 260.332 227.694C260.706 226.263 261.084 224.856 261.578 223.501C261.825 222.825 262.098 222.16 262.484 221.528C262.695 221.219 262.899 220.901 263.242 220.647C263.391 220.51 263.616 220.416 263.835 220.352C264.093 220.313 264.302 220.319 264.474 220.351C264.864 220.367 265.395 220.71 265.524 221.122C265.686 221.51 265.719 221.874 265.737 222.223C265.77 222.923 265.694 223.579 265.627 224.231C265.471 225.526 265.23 226.762 264.996 227.96C264.512 230.351 263.987 232.609 263.35 234.667C262.108 238.792 260.861 242.281 259.83 245.126C258.796 247.971 257.955 250.164 257.371 251.646C257.09 252.341 256.868 252.897 256.693 253.327C256.533 253.703 256.445 253.893 256.429 253.888Z" fill="#FF9A6C"/>
<path d="M165.679 300.741C168.838 311.886 175.007 329.107 181.642 347.262C182.602 349.887 186.253 350.057 187.446 347.531L203.713 313.143C203.713 313.143 199.796 284.892 200.128 285.887C200.459 286.885 166.568 289.543 166.568 289.543L165.679 300.741Z" fill="#26ADB6"/>
<path d="M202.311 295.198C202.348 295.336 200.291 295.932 197.071 297.161C193.852 298.385 189.497 300.328 185.004 303.046C180.517 305.775 176.778 308.739 174.206 311.027C171.628 313.314 170.148 314.862 170.043 314.767C169.998 314.726 170.326 314.299 170.954 313.559C171.578 312.812 172.544 311.788 173.791 310.578C176.279 308.152 180.008 305.07 184.555 302.305C189.108 299.552 193.563 297.67 196.865 296.584C198.516 296.039 199.869 295.655 200.82 295.447C201.766 295.232 202.296 295.139 202.311 295.198Z" fill="#FAFAFA"/>
<path d="M208.759 303.773C208.674 303.836 207.567 302.53 206.045 300.222C204.526 297.918 202.642 294.574 201.021 290.674C199.407 286.769 198.373 283.075 197.818 280.37C197.259 277.663 197.118 275.959 197.222 275.942C197.354 275.919 197.708 277.583 198.413 280.228C199.116 282.873 200.228 286.489 201.821 290.343C203.422 294.194 205.193 297.535 206.568 299.901C207.941 302.27 208.867 303.697 208.759 303.773Z" fill="#1A2E35"/>
<path d="M219.609 151.464C213.92 160.659 212.711 172.556 216.432 182.733C218.103 187.3 220.75 191.814 220.266 196.66C219.769 201.624 216.003 206.313 217.333 211.118C218.12 213.957 220.559 216.064 221.493 218.857C222.589 222.135 221.446 225.683 220.924 229.105C219.594 237.811 222.377 246.566 223.067 255.348C223.757 264.131 221.387 274.411 213.554 278.241C211.172 279.406 208.061 279.741 206.081 277.965C203.567 275.712 204.267 271.662 204.956 268.336C211.839 235.053 190.576 202.634 195.431 168.989C196.209 163.595 199.221 154.445 203.105 150.671C206.987 146.897 217.726 147.356 221.4 151.337" fill="#1A2E35"/>
<path d="M186.861 247.913C186.791 247.856 187.86 246.716 189.357 244.356C190.848 242.014 192.722 238.355 193.701 233.47C194.175 231.029 194.386 228.311 194.213 225.383C194.085 222.456 193.673 219.307 193.87 215.939C193.939 214.253 194.299 212.537 194.825 210.843C195.413 209.172 196.178 207.533 197.107 205.96C198.968 202.814 201.324 199.885 203.48 196.754C205.635 193.637 207.425 190.334 208.004 186.844C208.586 183.354 207.957 179.898 207.423 176.641C206.848 173.384 206.451 170.175 206.69 167.194C206.88 164.215 207.475 161.48 208.285 159.081C209.917 154.268 212.33 150.858 214.16 148.735C215.083 147.668 215.861 146.895 216.423 146.413C216.978 145.921 217.279 145.674 217.299 145.698C217.362 145.764 216.178 146.782 214.421 148.951C212.689 151.116 210.393 154.527 208.865 159.272C208.11 161.638 207.561 164.323 207.407 167.234C207.206 170.154 207.613 173.246 208.21 176.508C208.76 179.755 209.44 183.296 208.842 186.98C208.241 190.661 206.374 194.089 204.195 197.243C202.009 200.414 199.664 203.323 197.837 206.391C196.926 207.925 196.183 209.504 195.608 211.106C195.101 212.726 194.743 214.354 194.665 215.99C194.451 219.252 194.83 222.393 194.931 225.354C195.074 228.319 194.825 231.118 194.301 233.593C193.224 238.561 191.232 242.23 189.639 244.543C188.84 245.705 188.145 246.553 187.656 247.108C187.155 247.657 186.883 247.933 186.861 247.913Z" fill="#375A64"/>
<path d="M171.092 250.403C171.065 250.39 171.245 250.006 171.609 249.289C172.016 248.499 172.553 247.462 173.223 246.168C174.615 243.455 176.7 239.556 178.746 234.517C180.755 229.498 182.746 223.21 182.806 216.043C182.818 214.258 182.688 212.43 182.401 210.587C182.115 208.741 181.686 206.856 181.408 204.889C181.14 202.927 181.012 200.837 181.533 198.774C182.048 196.704 183.35 194.862 184.916 193.436C188.052 190.588 191.832 188.731 193.784 185.396C195.786 182.119 196.228 178.273 196.732 174.734C197.166 171.158 197.851 167.715 199.021 164.69C200.152 161.648 201.663 159.008 203.239 156.757C206.413 152.24 209.942 149.393 212.481 147.703C213.759 146.858 214.795 146.268 215.523 145.922C216.247 145.565 216.631 145.39 216.644 145.417C216.689 145.5 215.154 146.226 212.672 147.98C210.217 149.739 206.798 152.619 203.743 157.106C202.225 159.342 200.773 161.951 199.694 164.941C198.575 167.924 197.937 171.254 197.523 174.84C197.033 178.38 196.625 182.328 194.507 185.84C192.391 189.431 188.477 191.339 185.506 194.071C184.008 195.439 182.844 197.1 182.367 198.99C181.887 200.877 181.992 202.859 182.248 204.773C182.514 206.693 182.934 208.575 183.219 210.462C183.504 212.352 183.628 214.226 183.604 216.048C183.496 223.373 181.408 229.721 179.313 234.75C177.175 239.798 175.004 243.661 173.519 246.328C172.789 247.592 172.206 248.602 171.76 249.372C171.348 250.062 171.119 250.418 171.092 250.403Z" fill="#375A64"/>
</g>
<mask id="mask10_604_93716" style="mask-type:alpha" maskUnits="userSpaceOnUse" x="8" y="23" width="832" height="832">
<path d="M8.72852 23.6912H840V854.963H8.72852V23.6912Z" fill="white"/>
</mask>
<g mask="url(#mask10_604_93716)">
<path d="M729.895 743.872C729.879 743.864 729.978 743.628 730.186 743.171C730.417 742.674 730.73 742.01 731.127 741.162C731.928 739.388 732.969 736.7 733.895 733.122C735.727 725.973 736.367 715.049 733.661 702.073C732.402 695.575 730.376 688.608 727.902 681.218C725.463 673.816 722.633 665.964 720.321 657.473C718.033 649.004 716.229 639.81 716.577 630.173C716.927 620.518 719.787 610.879 722.931 601.284C726.068 591.673 729.312 582.281 730.284 572.831C731.385 563.4 729.366 554.143 725.069 546.555C720.907 538.889 715.67 532.332 711.754 525.539C707.773 518.771 705.285 511.808 703.75 505.334C700.776 492.281 701.818 481.282 703.243 474.033C704.786 466.746 706.51 462.979 706.51 462.979C706.525 462.986 706.46 463.233 706.315 463.712C706.152 464.237 705.935 464.939 705.655 465.833C705.078 467.694 704.332 470.475 703.624 474.106C702.324 481.34 701.403 492.263 704.437 505.174C706.001 511.575 708.502 518.445 712.467 525.121C716.375 531.833 721.634 538.364 725.878 546.121C730.266 553.79 732.374 563.352 731.257 572.931C730.278 582.539 727.009 591.994 723.878 601.592C720.735 611.18 717.91 620.718 717.552 630.211C717.197 639.701 718.957 648.805 721.207 657.234C723.483 665.683 726.279 673.537 728.687 680.958C731.13 688.37 733.132 695.396 734.352 701.938C736.988 715.012 736.234 726.045 734.273 733.219C733.278 736.81 732.173 739.491 731.31 741.247C730.874 742.078 730.532 742.73 730.276 743.217C730.038 743.659 729.91 743.882 729.895 743.872Z" fill="#1A2E35"/>
<path d="M717.076 532.24C717.076 532.24 709.119 506.797 723.392 491.899C723.894 491.377 724.775 491.623 724.905 492.336C725.666 496.537 726.619 509.337 717.076 532.24Z" fill="#26ADB6"/>
<path d="M721.842 500.377C721.976 500.404 721.749 502.195 721.306 505.071C720.783 508.304 720.169 512.1 719.491 516.293C718.826 520.488 718.222 524.282 717.71 527.513C717.273 530.388 717.014 532.17 716.868 532.159C716.738 532.149 716.751 530.338 717.01 527.429C717.273 524.521 717.787 520.522 718.507 516.133C719.225 511.743 719.99 507.791 720.613 504.941C721.235 502.093 721.707 500.349 721.842 500.377Z" fill="#1A2E35"/>
<path d="M726.423 592.248C726.423 592.248 731.289 566.038 750.871 559.544C751.557 559.316 752.222 559.948 752.003 560.638C750.711 564.709 745.569 576.467 726.423 592.248Z" fill="#26ADB6"/>
<path d="M745.537 566.314C745.641 566.401 744.604 567.875 742.868 570.213C740.893 572.825 738.575 575.894 736.013 579.282C733.465 582.679 731.157 585.749 729.192 588.369C727.463 590.704 726.399 592.157 726.276 592.079C726.166 592.01 727.024 590.416 728.614 587.965C730.205 585.52 732.529 582.223 735.219 578.68C737.907 575.137 740.433 572 742.316 569.774C744.195 567.546 745.43 566.226 745.537 566.314Z" fill="#1A2E35"/>
<path d="M721.13 658C721.13 658 718.175 631.506 735.025 619.606C735.619 619.188 736.437 619.599 736.427 620.324C736.374 624.593 734.867 637.338 721.13 658Z" fill="#26ADB6"/>
<path d="M731.887 627.634C732.015 627.685 731.45 629.399 730.468 632.139C729.337 635.213 728.01 638.821 726.544 642.81C725.089 646.798 723.774 650.409 722.654 653.485C721.678 656.221 721.082 657.922 720.941 657.882C720.816 657.849 721.176 656.073 721.984 653.267C722.797 650.464 724.063 646.637 725.61 642.464C727.149 638.291 728.657 634.557 729.811 631.882C730.963 629.203 731.761 627.582 731.887 627.634Z" fill="#1A2E35"/>
<path d="M735.881 724.139C735.881 724.139 733.874 697.558 751.143 686.268C751.75 685.871 752.551 686.311 752.518 687.036C752.312 691.299 750.348 703.982 735.881 724.139Z" fill="#26ADB6"/>
<path d="M747.72 694.176C747.845 694.233 747.218 695.925 746.138 698.628C744.899 701.661 743.443 705.22 741.835 709.151C740.24 713.086 738.796 716.647 737.567 719.681C736.493 722.381 735.836 724.059 735.697 724.014C735.574 723.976 735.994 722.215 736.904 719.438C737.816 716.665 739.22 712.886 740.912 708.772C742.603 704.658 744.242 700.981 745.491 698.347C746.739 695.712 747.594 694.12 747.72 694.176Z" fill="#1A2E35"/>
<path d="M705.641 509.886C705.641 509.886 682.011 497.546 681.549 476.921C681.532 476.196 682.33 475.747 682.926 476.159C686.437 478.587 696.169 486.953 705.641 509.886Z" fill="#26ADB6"/>
<path d="M686.454 484.004C686.567 483.928 687.673 485.354 689.398 487.7C691.317 490.353 693.57 493.469 696.059 496.912C698.557 500.345 700.818 503.452 702.744 506.099C704.471 508.437 705.547 509.88 705.435 509.975C705.337 510.059 704.065 508.771 702.19 506.535C700.318 504.294 697.849 501.107 695.251 497.494C692.65 493.886 690.393 490.551 688.817 488.1C687.24 485.647 686.339 484.082 686.454 484.004Z" fill="#1A2E35"/>
<path d="M731.014 564.526C731.014 564.526 706.679 553.643 704.963 533.084C704.903 532.363 705.673 531.864 706.293 532.24C709.946 534.451 720.169 542.21 731.014 564.526Z" fill="#26ADB6"/>
<path d="M710.292 539.86C710.4 539.775 711.591 541.131 713.455 543.368C715.531 545.901 717.97 548.874 720.663 552.157C723.365 555.434 725.811 558.397 727.894 560.922C729.759 563.152 730.921 564.527 730.817 564.628C730.723 564.718 729.377 563.511 727.368 561.391C725.362 559.27 722.705 556.237 719.89 552.789C717.077 549.346 714.622 546.154 712.899 543.801C711.177 541.451 710.183 539.943 710.292 539.86Z" fill="#1A2E35"/>
<path d="M717.013 625.476C717.013 625.476 700.304 604.704 708.142 585.62C708.416 584.95 709.329 584.857 709.708 585.474C711.954 589.106 717.52 600.669 717.013 625.476Z" fill="#26ADB6"/>
<path d="M709.798 594.077C709.933 594.052 710.377 595.801 711.015 598.642C711.71 601.843 712.528 605.6 713.431 609.751C714.342 613.898 715.17 617.65 715.875 620.847C716.52 623.68 716.929 625.434 716.788 625.477C716.666 625.514 716.014 623.825 715.191 621.022C714.374 618.22 713.388 614.312 712.455 609.961C711.517 605.612 710.786 601.653 710.322 598.775C709.86 595.897 709.662 594.102 709.798 594.077Z" fill="#1A2E35"/>
<path d="M733.562 697.2C733.562 697.2 709.414 685.91 708.042 665.324C707.995 664.603 708.774 664.119 709.385 664.503C713.003 666.774 723.091 674.706 733.562 697.2Z" fill="#26ADB6"/>
<path d="M713.256 672.188C713.368 672.106 714.537 673.481 716.36 675.751C718.395 678.319 720.783 681.33 723.42 684.66C726.068 687.98 728.462 690.986 730.502 693.545C732.331 695.804 733.47 697.199 733.363 697.299C733.268 697.387 731.94 696.157 729.968 694.004C727.998 691.849 725.393 688.773 722.638 685.279C719.882 681.787 717.481 678.555 715.798 676.175C714.116 673.795 713.147 672.271 713.256 672.188Z" fill="#1A2E35"/>
<path d="M781.664 592.391C781.688 592.392 781.698 592.592 781.696 592.979C781.684 593.441 781.669 594.002 781.653 594.682C781.581 596.284 781.486 598.447 781.367 601.146C781.056 606.83 780.622 614.752 780.103 624.228L780.102 624.252L780.095 624.285C778.373 633.929 773.458 644.623 766.859 655.002C762.02 662.65 756.946 669.601 752.568 676.068C748.164 682.516 744.445 688.487 741.855 693.778C739.245 699.063 737.728 703.605 736.842 706.777C736.417 708.368 736.099 709.61 735.914 710.461C735.715 711.306 735.595 711.75 735.562 711.743C735.527 711.736 735.582 711.284 735.717 710.421C735.838 709.557 736.097 708.297 736.465 706.679C737.241 703.459 738.671 698.84 741.22 693.472C743.752 688.095 747.434 682.043 751.807 675.553C756.153 669.042 761.2 662.08 766.016 654.472C772.58 644.142 777.468 633.614 779.255 624.122L779.249 624.175C779.914 614.707 780.471 606.792 780.868 601.114C781.087 598.421 781.262 596.263 781.392 594.665C781.46 593.988 781.515 593.432 781.561 592.971C781.608 592.587 781.641 592.389 781.664 592.391Z" fill="#1A2E35"/>
<path d="M767.286 653.018C767.286 653.018 777.512 628.399 764.647 612.272C764.197 611.706 763.296 611.873 763.101 612.57C761.962 616.685 759.854 629.345 767.286 653.018Z" fill="#26ADB6"/>
<path d="M765.422 620.855C765.56 620.84 765.872 622.621 766.233 625.513C766.595 628.405 766.999 632.411 767.319 636.849C767.638 641.286 767.788 645.316 767.786 648.234C767.779 651.155 767.628 652.959 767.498 652.957C767.354 652.955 767.256 651.158 767.081 648.255C766.861 644.99 766.605 641.156 766.323 636.918C766.027 632.681 765.759 628.847 765.53 625.578C765.35 622.674 765.285 620.87 765.422 620.855Z" fill="#1A2E35"/>
<mask id="mask11_604_93716" style="mask-type:alpha" maskUnits="userSpaceOnUse" x="761" y="611" width="11" height="43">
<path d="M761.93 611.931H771.139V653.019H761.93V611.931Z" fill="white"/>
</mask>
<g mask="url(#mask11_604_93716)">
<g opacity="0.300003">
<path d="M767.286 653.019C767.286 653.019 777.512 628.4 764.647 612.273C764.197 611.706 763.296 611.874 763.101 612.571C761.962 616.685 759.854 629.346 767.286 653.019Z" fill="black"/>
</g>
</g>
<path d="M735.606 712.344C735.606 712.344 743.806 686.977 729.674 671.946C729.177 671.417 728.294 671.656 728.158 672.368C727.355 676.562 726.283 689.351 735.606 712.344Z" fill="#26ADB6"/>
<path d="M731.144 680.437C731.278 680.411 731.734 682.16 732.329 685.014C732.924 687.867 733.653 691.827 734.329 696.223C735.008 700.621 735.483 704.626 735.719 707.535C735.95 710.446 735.945 712.257 735.817 712.265C735.671 712.273 735.427 710.49 735.018 707.613C734.535 704.375 733.968 700.574 733.343 696.375C732.703 692.177 732.128 688.374 731.634 685.136C731.219 682.255 731.007 680.464 731.144 680.437Z" fill="#1A2E35"/>
<mask id="mask12_604_93716" style="mask-type:alpha" maskUnits="userSpaceOnUse" x="727" y="671" width="11" height="42">
<path d="M727.649 671.66H737.97V712.344H727.649V671.66Z" fill="white"/>
</mask>
<g mask="url(#mask12_604_93716)">
<g opacity="0.300003">
<path d="M735.604 712.344C735.604 712.344 743.804 686.977 729.672 671.946C729.175 671.417 728.292 671.657 728.156 672.368C727.353 676.563 726.281 689.351 735.604 712.344Z" fill="black"/>
</g>
</g>
<path d="M780.312 622.934C780.312 622.934 802.151 607.645 799.948 587.132C799.87 586.411 799.02 586.068 798.483 586.554C795.313 589.417 786.742 598.968 780.312 622.934Z" fill="#26ADB6"/>
<mask id="mask13_604_93716" style="mask-type:alpha" maskUnits="userSpaceOnUse" x="780" y="586" width="21" height="37">
<path d="M780.31 586.328H800.101V622.932H780.31V586.328Z" fill="white"/>
</mask>
<g mask="url(#mask13_604_93716)">
<g opacity="0.300003">
<path d="M780.31 622.933C780.31 622.933 802.149 607.644 799.946 587.132C799.868 586.41 799.018 586.068 798.481 586.553C795.311 589.416 786.74 598.968 780.31 622.933Z" fill="black"/>
</g>
</g>
<path d="M795.995 594.79C796.118 594.852 795.428 596.523 794.181 599.156C792.934 601.791 791.127 605.391 789.014 609.303C786.904 613.221 784.867 616.701 783.3 619.163C781.728 621.626 780.633 623.067 780.525 622.996C780.403 622.916 781.283 621.346 782.694 618.804C784.262 615.931 786.103 612.558 788.136 608.829C790.159 605.095 791.993 601.715 793.553 598.835C794.959 596.285 795.872 594.731 795.995 594.79Z" fill="#1A2E35"/>
<path d="M744.414 687.196C744.414 687.196 770.755 683.088 777.81 663.701C778.057 663.021 777.445 662.339 776.749 662.539C772.644 663.711 760.742 668.514 744.414 687.196Z" fill="#26ADB6"/>
<mask id="mask14_604_93716" style="mask-type:alpha" maskUnits="userSpaceOnUse" x="744" y="662" width="34" height="26">
<path d="M744.415 662.504H777.867V687.196H744.415V662.504Z" fill="white"/>
</mask>
<g mask="url(#mask14_604_93716)">
<g opacity="0.300003">
<path d="M744.414 687.196C744.414 687.196 770.755 683.088 777.81 663.701C778.057 663.021 777.445 662.339 776.749 662.539C772.644 663.711 760.742 668.514 744.414 687.196Z" fill="black"/>
</g>
</g>
<path d="M770.889 668.838C770.973 668.946 769.617 670.142 767.336 671.959C765.058 673.776 761.849 676.21 758.23 678.792C754.609 681.381 751.249 683.608 748.757 685.128C746.261 686.646 744.644 687.457 744.579 687.346C744.504 687.221 745.985 686.199 748.371 684.538C751.045 682.649 754.182 680.433 757.65 677.981C761.111 675.52 764.247 673.292 766.913 671.394C769.301 669.725 770.806 668.73 770.889 668.838Z" fill="#1A2E35"/>
<path d="M719.287 735.67L711.603 787.381H759.485L753.278 735.67H719.287Z" fill="#375A64"/>
<path d="M755.193 751.693C755.193 751.969 746.548 752.191 735.886 752.191C725.22 752.191 716.575 751.969 716.575 751.693C716.575 751.418 725.22 751.194 735.886 751.194C746.548 751.194 755.193 751.418 755.193 751.693Z" fill="#1A2E35"/>
<path d="M756.141 755.809C756.141 756.083 747.213 756.308 736.202 756.308C725.186 756.308 716.26 756.083 716.26 755.809C716.26 755.533 725.186 755.31 736.202 755.31C747.213 755.31 756.141 755.533 756.141 755.809Z" fill="#1A2E35"/>
</g>
<path d="M561.215 210.38C561.215 210.38 560.773 210.388 559.917 210.363C559.057 210.326 557.784 210.267 556.113 210.383C552.794 210.569 547.81 211.194 541.943 213.65C536.142 216.1 529.352 220.431 523.951 227.672C521.272 231.274 519.033 235.609 517.671 240.522C516.356 245.441 515.911 250.897 516.538 256.515C517.247 262.113 518.96 267.907 522.099 273.227C523.655 275.879 525.5 278.457 527.756 280.73C529.936 283.069 532.506 285.139 535.406 286.715C538.299 288.28 541.612 289.267 545.002 289.131C548.365 289.021 551.833 287.836 554.296 285.382C556.774 282.946 557.998 279.368 558 275.799C558.018 272.203 556.771 268.625 554.628 265.613C550.31 259.546 543.331 255.464 535.906 253.265C528.41 251.08 520.174 251.024 512.291 252.939C508.364 253.962 504.527 255.461 500.918 257.459C497.312 259.47 494.032 262.091 491.156 265.119C490.474 265.91 489.697 266.627 489.091 267.485L487.214 270.018C486.118 271.817 484.994 273.613 484.153 275.566C482.391 279.422 481.154 283.556 480.539 287.818C479.423 296.333 480.454 305.105 483.895 312.759C487.219 320.425 492.886 327.005 499.947 330.97C503.472 332.941 507.365 334.211 511.316 334.425C515.257 334.67 519.189 333.654 522.533 331.732C525.873 329.815 528.662 326.934 530.126 323.464C531.579 319.994 531.552 316.036 530.297 312.593C529.061 309.111 526.747 306.139 524.047 303.753C521.329 301.369 518.16 299.583 514.85 298.41C508.143 296.22 500.999 296.338 494.61 298.059C488.204 299.803 482.494 303.101 478.01 307.316C473.533 311.555 470.39 316.756 468.493 322.066C464.656 332.769 465.632 343.634 468.927 351.937C472.319 360.308 477.707 366.27 482.625 370.21C487.589 374.178 492.11 376.321 495.21 377.54C496.773 378.135 497.979 378.557 498.805 378.79C499.625 379.046 500.038 379.199 500.038 379.199C500.038 379.199 499.608 379.103 498.78 378.875C497.942 378.671 496.727 378.273 495.147 377.703C492.015 376.531 487.446 374.428 482.416 370.473C477.43 366.544 471.955 360.569 468.478 352.116C465.098 343.729 464.061 332.736 467.915 321.86C469.823 316.465 472.999 311.163 477.551 306.83C482.105 302.529 487.902 299.158 494.424 297.366C500.93 295.6 508.205 295.452 515.098 297.69C518.506 298.892 521.758 300.717 524.559 303.166C527.344 305.617 529.746 308.682 531.048 312.323C532.368 315.928 532.41 320.111 530.875 323.777C529.336 327.443 526.416 330.452 522.947 332.449C519.475 334.45 515.374 335.514 511.271 335.263C507.174 335.044 503.152 333.73 499.535 331.712C492.289 327.649 486.504 320.927 483.107 313.105C479.594 305.298 478.542 296.371 479.681 287.695C480.307 283.355 481.568 279.139 483.368 275.204C484.228 273.21 485.375 271.375 486.497 269.538L488.416 266.948C489.037 266.071 489.829 265.338 490.527 264.53C493.466 261.435 496.821 258.763 500.497 256.715C504.178 254.678 508.087 253.154 512.085 252.116C520.112 250.171 528.491 250.236 536.137 252.472C543.713 254.731 550.811 258.871 555.283 265.157C557.498 268.274 558.809 272.037 558.779 275.801C558.774 279.536 557.484 283.322 554.831 285.924C552.196 288.536 548.538 289.763 545.029 289.871C541.481 290.005 538.036 288.965 535.065 287.345C532.086 285.718 529.469 283.596 527.256 281.211C524.965 278.89 523.095 276.263 521.52 273.561C518.348 268.148 516.631 262.264 515.929 256.587C515.314 250.887 515.786 245.358 517.139 240.375C518.541 235.401 520.834 231.015 523.563 227.382C529.066 220.084 535.949 215.761 541.815 213.339C547.745 210.912 552.769 210.34 556.104 210.208C557.784 210.12 559.062 210.208 559.922 210.275C560.778 210.33 561.215 210.38 561.215 210.38Z" fill="#1A2E35"/>
<path d="M616.743 556.525H383.636V376.735H616.743V556.525Z" fill="#26ADB6"/>
<path d="M383.635 376.736L426.69 416.895H655.843L616.742 376.736H383.635Z" fill="#26ADB6"/>
<path d="M383.635 376.736C387.839 376.728 484.119 376.553 616.742 376.31H616.92L617.046 376.44C629.533 389.262 642.493 402.567 655.752 416.18C655.888 416.319 656.024 416.459 656.154 416.592L656.872 417.329L655.843 417.327C561.879 417.257 478.483 417.194 426.69 417.156H426.588L426.513 417.086C399.572 391.732 385.05 378.066 383.635 376.736C385.06 378.053 399.703 391.591 426.869 416.703L426.69 416.634C478.483 416.595 561.879 416.532 655.843 416.462L655.534 417.196C655.404 417.063 655.268 416.923 655.131 416.783C641.878 403.167 628.921 389.858 616.436 377.032L616.742 377.16C484.119 376.919 387.838 376.743 383.635 376.736Z" fill="#1A2E35"/>
<path d="M453.649 459.64C451.184 459.645 448.931 461.859 448.889 464.327C448.846 466.794 451.019 469.086 453.485 469.175C455.95 469.263 458.283 467.135 458.417 464.671C458.554 462.209 456.469 459.834 454.008 459.653" fill="#1A2E35"/>
<path d="M508.69 459.639C506.225 459.644 503.972 461.859 503.93 464.326C503.887 466.793 506.06 469.086 508.526 469.174C510.991 469.262 513.324 467.134 513.458 464.67C513.595 462.208 511.51 459.834 509.049 459.653" fill="#1A2E35"/>
<path d="M509.045 502.678C508.796 502.781 508.429 498.179 504.432 492.341C502.467 489.449 499.527 486.38 495.625 483.892C491.747 481.405 486.82 479.615 481.499 479.422C476.172 479.322 471.154 480.84 467.144 483.111C463.111 485.382 460.007 488.285 457.887 491.068C453.578 496.674 452.958 501.249 452.715 501.131C452.687 501.125 452.733 500.855 452.85 500.347C452.991 499.845 453.099 499.066 453.46 498.139C454.062 496.242 455.284 493.582 457.4 490.697C459.502 487.809 462.634 484.785 466.752 482.418C470.843 480.049 476.011 478.453 481.522 478.556C487.03 478.755 492.099 480.631 496.056 483.222C500.038 485.811 502.997 489 504.937 491.999C506.892 494.997 507.968 497.72 508.463 499.647C508.774 500.594 508.839 501.376 508.952 501.883C509.042 502.4 509.075 502.673 509.045 502.678Z" fill="#1A2E35"/>
<mask id="mask15_604_93716" style="mask-type:alpha" maskUnits="userSpaceOnUse" x="384" y="378" width="233" height="53">
<path d="M384.163 378.714H616.74V430.983H384.163V378.714Z" fill="white"/>
</mask>
<g mask="url(#mask15_604_93716)">
<g opacity="0.5">
<path d="M384.162 378.714L425.387 430.982H616.74V416.894H426.69L384.162 378.714Z" fill="black"/>
</g>
</g>
<path d="M570.775 556.114C570.534 556.114 570.341 524.841 570.341 486.274C570.341 447.693 570.534 416.425 570.775 416.425C571.014 416.425 571.207 447.693 571.207 486.274C571.207 524.841 571.014 556.114 570.775 556.114Z" fill="#1A2E35"/>
<path d="M607.376 538.583H586.829V515.356H607.376V538.583Z" fill="#F5F5F5"/>
<path d="M383.634 376.736L335.776 416.895H383.634V376.736Z" fill="#26ADB6"/>
<mask id="mask16_604_93716" style="mask-type:alpha" maskUnits="userSpaceOnUse" x="335" y="376" width="49" height="41">
<path d="M335.777 376.735H383.635V416.894H335.777V376.735Z" fill="white"/>
</mask>
<g mask="url(#mask16_604_93716)">
<g opacity="0.399994">
<path d="M383.635 376.736L335.777 416.895H383.635V376.736Z" fill="black"/>
</g>
</g>
<path d="M623.62 763.243H355.604V556.526H623.62V763.243Z" fill="#26ADB6"/>
<mask id="mask17_604_93716" style="mask-type:alpha" maskUnits="userSpaceOnUse" x="355" y="556" width="269" height="208">
<path d="M355.604 556.527H623.621V763.244H355.604V556.527Z" fill="white"/>
</mask>
<g mask="url(#mask17_604_93716)">
<g opacity="0.300003">
<path d="M623.621 763.243H355.604V556.525H623.621V763.243Z" fill="black"/>
</g>
</g>
<path d="M556.469 761.784C556.23 761.784 556.037 715.707 556.037 658.881C556.037 602.035 556.23 555.968 556.469 555.968C556.71 555.968 556.903 602.035 556.903 658.881C556.903 715.707 556.71 761.784 556.469 761.784Z" fill="#1A2E35"/>
<path d="M600.894 739.419H580.349V716.192H600.894V739.419Z" fill="#F5F5F5"/>
<path d="M437.369 601.168H467.812V557.06H437.369V601.168Z" fill="#1A2E35"/>
<path d="M437.369 762.628H467.812V718.521H437.369V762.628Z" fill="#1A2E35"/>
<path d="M621.286 556.526C621.286 556.541 621.051 556.556 620.599 556.57C620.105 556.581 619.438 556.596 618.586 556.615C616.77 556.633 614.172 556.659 610.845 556.696C604.077 556.728 594.362 556.774 582.377 556.832C558.298 556.864 525.109 556.907 488.452 556.957C451.781 556.907 418.588 556.864 394.511 556.832C382.526 556.774 372.81 556.728 366.044 556.696C362.719 556.659 360.12 556.633 358.304 556.615C357.452 556.596 356.785 556.581 356.291 556.57C355.837 556.556 355.604 556.541 355.604 556.526C355.604 556.511 355.837 556.497 356.291 556.483C356.785 556.472 357.452 556.458 358.304 556.438C360.12 556.422 362.719 556.393 366.044 556.357C372.81 556.325 382.526 556.279 394.511 556.219C418.588 556.187 451.781 556.142 488.452 556.091C525.109 556.142 558.298 556.187 582.377 556.219C594.362 556.279 604.077 556.325 610.845 556.357C614.172 556.393 616.77 556.422 618.586 556.438C619.438 556.458 620.105 556.472 620.599 556.483C621.051 556.497 621.286 556.511 621.286 556.526Z" fill="#1A2E35"/>
<path d="M161.961 198.621C160.033 198.147 150.744 195.864 132.777 191.45L132.991 191.417C126.574 195.509 117.879 198.812 107.799 198.968C102.786 198.95 97.4811 198.348 92.1892 196.689C86.9007 195.043 81.7002 192.31 76.9753 188.626C67.5204 181.312 60.1587 169.591 58.5693 156.1C57.758 149.398 58.2999 142.352 60.3864 135.607C62.5112 128.879 66.1737 122.503 71.1098 117.136C73.6103 114.302 76.5563 111.947 79.5605 109.773C81.14 108.799 82.6944 107.786 84.3204 106.93L86.8026 105.734L88.0395 105.139L89.3263 104.67C96.1261 102.032 103.363 101.013 110.309 101.475C117.262 101.921 123.922 103.867 129.748 106.933C135.583 109.991 140.586 114.144 144.513 118.859C148.451 123.577 151.313 128.85 153.133 134.172C154.954 139.502 155.782 144.864 155.83 149.93C155.89 160.106 152.709 168.836 148.839 175.211L148.84 174.946C156.957 189.59 161.057 196.988 161.961 198.621C161.025 197.006 156.782 189.688 148.385 175.206L148.31 175.074L148.388 174.941C152.162 168.6 155.238 159.965 155.123 149.933C155.048 144.941 154.205 139.667 152.395 134.43C150.581 129.201 147.748 124.026 143.864 119.404C139.989 114.782 135.065 110.717 129.33 107.728C123.605 104.734 117.069 102.838 110.248 102.409C103.431 101.967 96.3389 102.976 89.6755 105.565L88.4153 106.027L87.2033 106.611L84.771 107.783C83.1766 108.624 81.6537 109.618 80.1059 110.572C77.1632 112.706 74.2737 115.011 71.8231 117.793C66.9851 123.053 63.3907 129.301 61.3042 135.893C59.2559 142.502 58.7156 149.413 59.502 155.987C61.0415 169.217 68.2353 180.737 77.5023 187.952C82.1342 191.587 87.2365 194.292 92.4303 195.932C97.6307 197.585 102.848 198.202 107.789 198.247C117.721 198.142 126.318 194.945 132.697 190.95L132.8 190.887L132.913 190.917C150.797 195.66 160.044 198.112 161.961 198.621Z" fill="#1A2E35"/>
<path d="M103.013 128.515L104.557 152.893C104.682 154.886 106.275 156.472 108.27 156.592C110.373 156.717 112.205 155.172 112.436 153.077L115.143 128.577C115.347 126.721 113.881 125.107 112.014 125.132L106.067 125.215C104.293 125.24 102.901 126.744 103.013 128.515Z" fill="#26ADB6"/>
<path d="M114.731 170.303C113.695 173.422 110.328 175.111 107.209 174.076C104.091 173.04 102.401 169.673 103.437 166.554C104.473 163.435 107.84 161.746 110.959 162.782C114.077 163.818 115.767 167.184 114.731 170.303Z" fill="#26ADB6"/>
</svg>
